# xmcd
#
# Track frame offsets: 
#        150
#        20185
#        41545
#        49312
#        64975
#        78804
#        86010
#        115882
#        137310
#        151307
#        171070
#        194655
#        207455
#        228132
#
# Disc length: 3257 seconds
#
# Revision: 0
# Processed by: cddbd v1.5.1PL0 Copyright (c) Steve Scherf et al.
# Submitted via: ExactAudioCopy v0.95a5
#
DISCID=bb0cb70e
DTITLE=Suspekt - Suspekt
DYEAR=1999
DGENRE=Rap
TTITLE0=Tabu Kompaner
TTITLE1=Ingen Samvittighed
TTITLE2=Intensiv
TTITLE3=Vi Ved Besked Feat. Kælderposen
TTITLE4=Cleopatra
TTITLE5=Sex
TTITLE6=Farezonen Feat. Sidste Niveau
TTITLE7=Fatale Konzeknenza
TTITLE8=Opskriften
TTITLE9=Suspex-Files
TTITLE10=Stive Soldater Feat. Clemens and Kælderposen
TTITLE11=Energi
TTITLE12=Hævn
TTITLE13=Alarm
EXTD=
EXTT0=
EXTT1=
EXTT2=
EXTT3=
EXTT4=
EXTT5=
EXTT6=
EXTT7=
EXTT8=
EXTT9=
EXTT10=
EXTT11=
EXTT12=
EXTT13=
PLAYORDER=
